<svg width="13" height="12" viewBox="0 0 13 12" fill="none" xmlns="http://www.w3.org/2000/svg">
<mask id="path-1-inside-1" fill="white">
<path d="M6.5 0C5.52795 0 4.72727 0.739091 4.72727 1.63636C4.72727 1.82836 4.771 2.00945 4.83836 2.18182H1.88382L1.79105 2.62527L0.0183183 10.8071L0 10.8578V12H13V10.8578L12.9817 10.8071L11.209 2.62527L11.1162 2.18182H8.16164C8.23261 2.00731 8.2702 1.82275 8.27273 1.63636C8.27273 0.739091 7.47204 0 6.5 0ZM6.5 1.09091C6.83268 1.09091 7.09091 1.32982 7.09091 1.63636C7.09091 1.94345 6.83209 2.18182 6.5 2.18182C6.16732 2.18182 5.90909 1.94291 5.90909 1.63636C5.90909 1.32927 6.16791 1.09091 6.5 1.09091ZM2.84345 3.27273H10.1565L11.8182 10.9091H1.18182L2.84345 3.27273Z"/>
</mask>
<path d="M6.5 0C5.52795 0 4.72727 0.739091 4.72727 1.63636C4.72727 1.82836 4.771 2.00945 4.83836 2.18182H1.88382L1.79105 2.62527L0.0183183 10.8071L0 10.8578V12H13V10.8578L12.9817 10.8071L11.209 2.62527L11.1162 2.18182H8.16164C8.23261 2.00731 8.2702 1.82275 8.27273 1.63636C8.27273 0.739091 7.47204 0 6.5 0ZM6.5 1.09091C6.83268 1.09091 7.09091 1.32982 7.09091 1.63636C7.09091 1.94345 6.83209 2.18182 6.5 2.18182C6.16732 2.18182 5.90909 1.94291 5.90909 1.63636C5.90909 1.32927 6.16791 1.09091 6.5 1.09091ZM2.84345 3.27273H10.1565L11.8182 10.9091H1.18182L2.84345 3.27273Z" fill="white"/>
<path d="M4.83836 2.18182V1002.18H1469.32L936.233 -361.828L4.83836 2.18182ZM1.88382 2.18182V-997.818H-810.561L-976.926 -202.589L1.88382 2.18182ZM1.79105 2.62527L979.114 214.379L979.87 210.89L980.601 207.396L1.79105 2.62527ZM0.0183183 10.8071L940.572 350.452L963.221 287.732L977.341 222.56L0.0183183 10.8071ZM0 10.8578L-940.554 -328.787L-1000 -164.167V10.8578H0ZM0 12H-1000V1012H0V12ZM13 12V1012H1013V12H13ZM13 10.8578H1013V-164.167L953.554 -328.787L13 10.8578ZM12.9817 10.8071L-964.341 222.56L-950.221 287.732L-927.572 350.452L12.9817 10.8071ZM11.209 2.62527L-967.601 207.396L-966.87 210.89L-966.114 214.379L11.209 2.62527ZM11.1162 2.18182L989.926 -202.589L823.561 -997.818H11.1162V2.18182ZM8.16164 2.18182L-918.15 -374.576L-1478.12 1002.18H8.16164V2.18182ZM8.27273 1.63636L1008.18 15.1814L1008.27 8.40919V1.63636H8.27273ZM2.84345 3.27273V-996.727H-802.961L-974.292 -209.347L2.84345 3.27273ZM10.1565 3.27273L987.292 -209.347L815.961 -996.727H10.1565V3.27273ZM11.8182 10.9091V1010.91H1252.81L988.953 -201.711L11.8182 10.9091ZM1.18182 10.9091L-975.953 -201.711L-1239.81 1010.91H1.18182V10.9091ZM6.5 -1000C-469.886 -1000 -995.273 -625.403 -995.273 1.63636H1004.73C1004.73 626.882 480.942 1000 6.5 1000V-1000ZM-995.273 1.63636C-995.273 156.466 -959.542 281.791 -926.557 366.192L936.233 -361.828C969.084 -277.772 1004.73 -152.809 1004.73 1.63636H-995.273ZM4.83836 -997.818H1.88382V1002.18H4.83836V-997.818ZM-976.926 -202.589L-977.019 -202.146L980.601 207.396L980.694 206.953L-976.926 -202.589ZM-975.532 -209.128L-977.305 -200.946L977.341 222.56L979.114 214.379L-975.532 -209.128ZM-940.536 -328.837L-940.554 -328.787L940.554 350.502L940.572 350.452L-940.536 -328.837ZM-1000 10.8578V12H1000V10.8578H-1000ZM0 1012H13V-988H0V1012ZM1013 12V10.8578H-987V12H1013ZM953.554 -328.787L953.536 -328.837L-927.572 350.452L-927.554 350.502L953.554 -328.787ZM990.305 -200.946L988.532 -209.128L-966.114 214.379L-964.341 222.56L990.305 -200.946ZM990.019 -202.146L989.926 -202.589L-967.694 206.953L-967.601 207.396L990.019 -202.146ZM11.1162 -997.818H8.16164V1002.18H11.1162V-997.818ZM934.473 378.94C980.98 264.596 1006.47 141.318 1008.18 15.1814L-991.636 -11.9087C-989.932 -137.673 -964.515 -260.581 -918.15 -374.576L934.473 378.94ZM1008.27 1.63636C1008.27 -625.403 482.886 -1000 6.5 -1000V1000C-467.942 1000 -991.727 626.882 -991.727 1.63636H1008.27ZM6.5 1001.09C-469.26 1001.09 -992.909 626.845 -992.909 1.63636H1007.09C1007.09 -624.185 482.926 -998.909 6.5 -998.909V1001.09ZM-992.909 1.63636C-992.909 -624.826 -467.902 -997.818 6.5 -997.818V1002.18C481.566 1002.18 1007.09 628.713 1007.09 1.63636H-992.909ZM6.5 -997.818C482.26 -997.818 1005.91 -623.572 1005.91 1.63636H-994.091C-994.091 627.458 -469.926 1002.18 6.5 1002.18V-997.818ZM1005.91 1.63636C1005.91 628.099 480.902 1001.09 6.5 1001.09V-998.909C-468.566 -998.909 -994.091 -625.44 -994.091 1.63636H1005.91ZM2.84345 1003.27H10.1565V-996.727H2.84345V1003.27ZM-966.978 215.893L-965.317 223.529L988.953 -201.711L987.292 -209.347L-966.978 215.893ZM11.8182 -989.091H1.18182V1010.91H11.8182V-989.091ZM978.317 223.529L979.978 215.893L-974.292 -209.347L-975.953 -201.711L978.317 223.529Z" fill="white" mask="url(#path-1-inside-1)"/>
</svg>
