<svg width="15" height="9" viewBox="0 0 15 9" fill="none" xmlns="http://www.w3.org/2000/svg">
<path fill-rule="evenodd" clip-rule="evenodd" d="M13.7831 0C13.1094 0 12.5644 0.460776 12.5644 1.02925L12.4027 2.06234H0.508363C0.209547 2.06234 0 2.28311 0 2.56542C0 2.67235 0.00939673 2.77312 0.0676564 2.85389L1.2056 7.04934C1.24319 7.18165 1.36347 7.27934 1.51663 7.33319C1.59078 7.37299 1.67701 7.3951 1.76565 7.39703H11.5993L11.4358 8.23781H2.39429C2.09453 8.23781 1.92351 8.28089 1.92351 8.5632C1.92351 8.84552 2.09453 8.92782 2.39429 8.92782L12.5334 8.92859L13.6234 2.04541C13.6769 2.0508 13.7277 2.05926 13.7831 2.05926C14.455 2.05926 15 1.59772 15 1.03002C15 0.460776 14.454 0 13.7831 0ZM11.962 4.44007H10.3214V2.79312H12.274L11.962 4.44007ZM2.02406 6.65933L1.7337 5.09392H3.78406V6.65933H2.02406ZM7.47322 2.79389H9.39673V4.36853H7.47322V2.79389ZM6.59181 4.39237H4.63917V2.78158H6.59181V4.39237ZM3.77279 4.38468H1.70833L1.41327 2.79543H3.77373V4.38468H3.77279ZM4.6542 5.10161H6.59181V6.7001H4.6542V5.10161ZM7.47322 5.08931H9.41082V6.7001H7.47322V5.08931ZM10.2922 6.68779V5.11315H12.0833L11.8117 6.68779H10.2922Z" fill="white"/>
</svg>
