<svg id="Group_1" data-name="Group 1" xmlns="http://www.w3.org/2000/svg" width="21" height="24" viewBox="0 0 21 24">
  <defs>
    <style>
      .cls-1 {
        fill-rule: evenodd;
      }
    </style>
  </defs>
  <path id="Path_1" data-name="Path 1" class="cls-1" d="M14.783,10.717a.75.75,0,0,1,0,1.062l-4.5,4.5a.75.75,0,0,1-1.062,0l-2.25-2.25a.751.751,0,1,1,1.062-1.062l1.719,1.72,3.969-3.97a.75.75,0,0,1,1.062,0Z"/>
  <path id="Path_2" data-name="Path 2" d="M4.5,2.25H3a3,3,0,0,0-3,3V21a3,3,0,0,0,3,3H18a3,3,0,0,0,3-3V5.25a3,3,0,0,0-3-3H16.5v1.5H18a1.5,1.5,0,0,1,1.5,1.5V21A1.5,1.5,0,0,1,18,22.5H3A1.5,1.5,0,0,1,1.5,21V5.25A1.5,1.5,0,0,1,3,3.75H4.5Z"/>
  <path id="Path_3" data-name="Path 3" d="M12.747,1.5a.75.75,0,0,1,.75.75v1.5a.75.75,0,0,1-.75.75h-4.5a.75.75,0,0,1-.75-.75V2.25a.75.75,0,0,1,.75-.75ZM8.247,0A2.25,2.25,0,0,0,6,2.25v1.5A2.25,2.25,0,0,0,8.247,6h4.5A2.25,2.25,0,0,0,15,3.75V2.25A2.25,2.25,0,0,0,12.747,0Z"/>
</svg>
