<svg width="10" height="14" viewBox="0 0 10 14" fill="none" xmlns="http://www.w3.org/2000/svg">
<path d="M8.33333 4.55H10C10 2.5641 7.70417 1.6583 5.83333 1.4497V0H4.16667V1.4497C2.29583 1.6583 0 2.5641 0 4.55C0 6.4442 2.22167 7.4291 4.16667 7.651V11.13C2.96 10.9543 1.66667 10.4132 1.66667 9.45H0C0 11.2623 2.02083 12.3333 4.16667 12.5552V14H5.83333V12.551C7.70417 12.3424 10 11.4359 10 9.45C10 7.4641 7.70417 6.5583 5.83333 6.3497V2.87C6.94167 3.0373 8.33333 3.5287 8.33333 4.55ZM1.66667 4.55C1.66667 3.5287 3.05833 3.0373 4.16667 2.87V6.2293C3.02417 6.0522 1.66667 5.5279 1.66667 4.55ZM8.33333 9.45C8.33333 10.4713 6.94167 10.9627 5.83333 11.13V7.77C6.94167 7.9373 8.33333 8.4287 8.33333 9.45Z" fill="#575555"/>
</svg>
