<svg width="11" height="13" viewBox="0 0 11 13" fill="none" xmlns="http://www.w3.org/2000/svg">
<path d="M9.39 9.19317L5.5 13L1.61 9.19219C0.841071 8.43896 0.317504 7.4794 0.105495 6.43485C-0.106515 5.39029 0.00255424 4.30764 0.418912 3.32378C0.83527 2.33991 1.54022 1.49901 2.44463 0.907391C3.34905 0.315772 4.41231 0 5.5 0C6.58769 0 7.65095 0.315772 8.55537 0.907391C9.45978 1.49901 10.1647 2.33991 10.5811 3.32378C10.9974 4.30764 11.1065 5.39029 10.8945 6.43485C10.6825 7.4794 10.1589 8.43993 9.39 9.19317ZM5.5 7.34262C6.03043 7.34262 6.53914 7.13631 6.91421 6.76906C7.28929 6.40182 7.5 5.90373 7.5 5.38437C7.5 4.86501 7.28929 4.36693 6.91421 3.99968C6.53914 3.63244 6.03043 3.42613 5.5 3.42613C4.96957 3.42613 4.46086 3.63244 4.08579 3.99968C3.71071 4.36693 3.5 4.86501 3.5 5.38437C3.5 5.90373 3.71071 6.40182 4.08579 6.76906C4.46086 7.13631 4.96957 7.34262 5.5 7.34262Z" fill="white"/>
</svg>
