<svg xmlns="http://www.w3.org/2000/svg" width="26" height="26" viewBox="0 0 26 26">
  <path id="Path_6" data-name="Path 6" d="M25.741,6.525l-.009-.017,0-.007a1.919,1.919,0,0,0-.747-.666l-11-5.6a2.2,2.2,0,0,0-1.961,0l-11,5.6a1.92,1.92,0,0,0-.748.67l-.006.009-.008.015A1.679,1.679,0,0,0,0,7.415V18.584a1.686,1.686,0,0,0,.274.914,1.924,1.924,0,0,0,.746.665l11,5.6a2.157,2.157,0,0,0,.9.229c.023,0,.045,0,.069,0H13c.031,0,.063,0,.093,0a2.152,2.152,0,0,0,.886-.228l11-5.6a1.923,1.923,0,0,0,.746-.665A1.686,1.686,0,0,0,26,18.583V7.415a1.679,1.679,0,0,0-.259-.89ZM13,1.81l9.968,5.079L19.14,8.859,9.055,3.82Zm.114,10.15L3.047,6.881,7,4.865,17.1,9.908ZM2,8.426l10.113,5.1-.1,10.157L2,18.584ZM14.015,23.671l.1-10.142,4.014-2.066v4.311a.865.865,0,0,0,.293.641,1.075,1.075,0,0,0,1.414,0,.865.865,0,0,0,.293-.641v-5.34L24,8.441V18.584Z"/>
</svg>
